<?xml version="1.0" encoding="UTF-8" standalone="no"?>
<!-- Created with Inkscape (http://www.inkscape.org/) -->

<svg
   width="128"
   height="384"
   viewBox="0 0 33.866667 101.6"
   version="1.1"
   id="svg1"
   inkscape:version="1.4 (86a8ad7, 2024-10-11)"
   inkscape:export-filename="..\easy-enemy.png"
   inkscape:export-xdpi="384"
   inkscape:export-ydpi="384"
   sodipodi:docname="src.svg"
   xmlns:inkscape="http://www.inkscape.org/namespaces/inkscape"
   xmlns:sodipodi="http://sodipodi.sourceforge.net/DTD/sodipodi-0.dtd"
   xmlns="http://www.w3.org/2000/svg"
   xmlns:svg="http://www.w3.org/2000/svg">
  <sodipodi:namedview
     id="namedview1"
     pagecolor="#505050"
     bordercolor="#ffffff"
     borderopacity="1"
     inkscape:showpageshadow="0"
     inkscape:pageopacity="0"
     inkscape:pagecheckerboard="1"
     inkscape:deskcolor="#d1d1d1"
     inkscape:document-units="mm"
     inkscape:zoom="1.4142136"
     inkscape:cx="-51.265241"
     inkscape:cy="249.96225"
     inkscape:window-width="1858"
     inkscape:window-height="1057"
     inkscape:window-x="-8"
     inkscape:window-y="-8"
     inkscape:window-maximized="1"
     inkscape:current-layer="layer4" />
  <defs
     id="defs1" />
  <g
     inkscape:groupmode="layer"
     id="layer2"
     inkscape:label="main" />
  <g
     inkscape:groupmode="layer"
     id="layer1"
     inkscape:label="colors"
     style="display:none">
    <circle
       style="fill:#800000;fill-opacity:1;stroke-width:22.4544;stroke-linecap:round;paint-order:markers stroke fill"
       id="path1"
       cx="38.099998"
       cy="4.2333331"
       r="4.2333331" />
    <circle
       style="fill:#800000;fill-opacity:1;stroke-width:22.4544;stroke-linecap:round;paint-order:markers stroke fill"
       id="circle1"
       cx="38.099998"
       cy="11.083131"
       r="2.6164646" />
    <circle
       style="fill:#d45500;fill-opacity:1;stroke-width:22.4544;stroke-linecap:round;paint-order:markers stroke fill"
       id="circle2"
       cx="38.099998"
       cy="15.316729"
       r="1.6171334" />
    <circle
       style="fill:#ffd42a;fill-opacity:1;stroke-width:22.4544;stroke-linecap:round;paint-order:markers stroke fill"
       id="circle3"
       cx="38.099998"
       cy="17.933458"
       r="0.99959582" />
    <circle
       style="fill:#ffd42a;fill-opacity:1;stroke-width:22.4544;stroke-linecap:round;paint-order:markers stroke fill"
       id="circle3-3"
       cx="38.099998"
       cy="19.550856"
       r="0.61780208" />
    <circle
       style="fill:#d45500;fill-opacity:1;stroke-width:22.4544;stroke-linecap:round;paint-order:markers stroke fill"
       id="circle5"
       cx="38.099998"
       cy="15.316729"
       r="1.6171334" />
    <circle
       style="fill:#ffd42a;fill-opacity:1;stroke-width:22.4544;stroke-linecap:round;paint-order:markers stroke fill"
       id="circle19"
       cx="38.099998"
       cy="17.933458"
       r="0.99959582" />
    <circle
       style="fill:#ffd42a;fill-opacity:1;stroke-width:22.4544;stroke-linecap:round;paint-order:markers stroke fill"
       id="circle69"
       cx="38.099998"
       cy="17.933458"
       r="0.99959582" />
    <rect
       style="fill:#800000;stroke-width:10;stroke-linecap:round;paint-order:markers stroke fill"
       id="rect1"
       width="0.66465712"
       height="0.66465712"
       x="-0.66465712"
       y="0"
       ry="0" />
    <rect
       style="fill:#d45500;stroke-width:10;stroke-linecap:round;paint-order:markers stroke fill"
       id="rect1-8"
       width="0.66465712"
       height="0.66465712"
       x="-0.66465712"
       y="0.66465712"
       ry="0" />
    <rect
       style="fill:#ffd42a;stroke-width:10;stroke-linecap:round;paint-order:markers stroke fill"
       id="rect1-8-5"
       width="0.66465712"
       height="0.66465712"
       x="-0.66465712"
       y="1.3293142"
       ry="0" />
  </g>
  <g
     inkscape:groupmode="layer"
     id="layer4"
     inkscape:label="grid"
     style="display:none">
    <rect
       style="fill:#000000;fill-opacity:1;stroke-width:10;stroke-linecap:round;paint-order:markers stroke fill"
       id="rect142"
       width="33.866665"
       height="33.866665"
       x="1.7801921e-06"
       y="-3.8146973e-06" />
    <rect
       style="fill:#ffffff;fill-opacity:1;stroke-width:10;stroke-linecap:round;paint-order:markers stroke fill"
       id="rect143"
       width="33.866665"
       height="33.866665"
       x="2.670288e-06"
       y="33.866661" />
    <rect
       style="fill:#000000;fill-opacity:1;stroke-width:10;stroke-linecap:round;paint-order:markers stroke fill"
       id="rect144"
       width="33.866665"
       height="33.866665"
       x="2.670288e-06"
       y="67.73333" />
  </g>
  <g
     id="g91"
     transform="matrix(0,-1.7077638,1.7077638,0,-68.211839,79.97104)"
     style="display:inline">
    <path
       id="path1-5"
       style="fill:#800000;fill-opacity:1;stroke-width:22.4544;stroke-linecap:round;paint-order:markers stroke fill"
       d="m 18.219043,39.991357 c -0.73157,-0.01971 -2.199886,0.241286 -1.983858,0.940511 0.0068,0.02216 0.04667,-0.01802 0.06873,-0.01085 0.725012,0.235698 1.617412,0.854594 1.617473,1.616956 6.1e-5,0.762484 -0.859534,1.534343 -1.617473,1.617472 -0.563073,0.06176 -0.871676,-0.984816 -1.433504,-0.912605 -0.984909,0.12659 -2.032648,1.190335 -2.02675,2.183329 0.0044,0.736763 1.532165,0.865252 1.522905,1.601969 -0.0096,0.762302 -0.854594,1.617412 -1.616956,1.617473 -0.762484,6.1e-5 -1.408226,-0.884262 -1.617472,-1.617473 -0.05966,-0.20905 0.273537,-0.457396 0.148311,-0.635103 -0.06911,-0.09807 -0.238461,-0.05495 -0.357601,-0.04082 -0.572092,0.06784 -1.370264,0.07484 -1.623673,0.592212 -0.1425023,0.290941 0.3536748,0.606623 0.2966227,0.925525 -0.1169241,0.653567 -1.296694,0.908017 -1.227832,1.56838 0.1153671,1.10633 1.4968831,1.803254 2.5548823,2.146639 0.05995,0.01946 0.146846,-0.06064 0.188619,-0.01344 0.214256,0.242105 -0.175109,0.628768 -0.186035,0.95188 -0.0034,0.101856 -0.0027,0.210018 0.03824,0.303341 0.279137,0.636085 1.325256,0.897281 1.345137,1.591634 0.01843,0.643762 -1.250592,0.906893 -1.160652,1.544608 0.12281,0.870781 1.374841,1.100411 2.106331,1.588534 1.182719,0.789229 2.26849,2.339614 3.678845,2.159041 1.979454,-0.253436 3.538958,-2.362421 4.233334,-4.233333 0.04502,-0.121295 0.0724,-0.30663 -0.02894,-0.387057 -0.01666,-0.01322 -0.04283,0.01642 -0.06304,0.0098 -0.72463,-0.236478 -1.616895,-0.854716 -1.616956,-1.616956 -6.1e-5,-0.762362 0.865879,-1.486782 1.616956,-1.617472 0.452446,-0.07873 0.823611,0.768527 1.245918,0.588078 0.357697,-0.152842 0.04241,-0.896361 0.369487,-1.106909 0.13719,-0.08831 0.332993,0.105623 0.486792,0.05116 1.162626,-0.411714 2.219229,-1.448696 2.616378,-2.616377 0.0064,-0.01891 0.0078,-0.04684 -0.0078,-0.05943 -0.05727,-0.0465 -0.151466,0.04264 -0.220658,0.01705 -0.715034,-0.264428 -1.421644,-0.880553 -1.616956,-1.617472 -0.06588,-0.248581 0.336831,-0.524177 0.203605,-0.744141 -0.172252,-0.2844 -0.642452,-0.197539 -0.974617,-0.21239 -0.199804,-0.0089 -0.39531,0.07443 -0.595313,0.07493 -0.20838,5.27e-4 -0.412317,-0.0698 -0.620634,-0.07493 -0.05593,-0.0014 -0.128915,0.05247 -0.167431,0.01188 -0.133223,-0.140376 0.09119,-0.383686 0.07131,-0.576192 -0.05575,-0.540064 -0.240023,-1.080036 -0.526066,-1.541508 -0.399277,-0.644153 -1.480586,-0.866559 -1.600419,-1.614888 -0.07557,-0.471911 0.784509,-0.826808 0.640788,-1.282609 -0.24627,-0.781031 -1.341435,-1.148413 -2.160075,-1.170472 z"
       sodipodi:nodetypes="sssssssssssssssssssssssssssssssssssssssssssss" />
    <path
       id="circle60"
       style="fill:#d45500;fill-opacity:1;stroke-width:22.4544;stroke-linecap:round;paint-order:markers stroke fill"
       d="m 17.991667,46.243172 c -0.434309,0.0345 -1.021667,0.135773 -1.191659,0.536918 -0.08566,0.20213 0.247549,0.40142 0.223242,0.619601 -0.03966,0.355944 -0.585226,0.54782 -0.577742,0.905888 0.0073,0.350768 0.581437,0.512787 0.602547,0.862996 0.01511,0.250683 -0.153585,0.513714 -0.353984,0.665076 -0.03852,0.0291 -0.09377,0.03713 -0.141593,0.03049 -0.500468,-0.06946 -0.839257,-0.785474 -1.338936,-0.710551 -0.753934,0.113046 -1.490938,0.865598 -1.616956,1.617472 -0.07616,0.454431 0.165637,1.381216 0.605131,1.242818 0.03992,-0.01257 -0.03257,-0.08422 -0.01964,-0.124023 0.145599,-0.44807 0.52829,-0.999361 0.999422,-0.999422 0.471254,-6.1e-5 0.999878,0.528168 0.999939,0.999422 6.1e-5,0.471376 -0.546963,0.869525 -0.999939,0.999939 -0.127011,0.03657 -0.279604,-0.166045 -0.386539,-0.08837 -0.02337,0.01698 -0.0088,0.05744 -0.0078,0.0863 0.0062,0.169034 0.193543,0.373442 0.08217,0.500744 -0.01157,0.01323 -0.03526,-0.0036 -0.05271,-0.0016 -0.28013,0.03334 -0.716641,-0.04112 -0.816488,0.222726 -0.126973,0.335529 0.627272,0.542809 0.590662,0.899686 -0.04808,0.468673 -0.55054,0.856351 -0.999423,0.999423 -0.10288,0.03279 -0.265955,-0.148109 -0.31936,-0.05426 -0.219579,0.385863 0.724285,0.593016 0.86248,1.014925 0.0098,0.02987 -0.0071,0.06262 -0.0067,0.09405 0.0021,0.160091 -0.08167,0.382765 0.04702,0.478007 0.09618,0.07118 0.23738,-0.105421 0.351917,-0.0708 0.451093,0.136366 0.912397,0.53679 0.999422,0.999939 0.04756,0.253111 -0.415559,0.472279 -0.310575,0.70745 0.218698,0.489898 1.007236,0.626722 1.529105,0.502295 1.199861,-0.286078 2.419694,-1.399183 2.616378,-2.616895 0.12464,-0.77167 -1.087709,-1.315158 -1.051615,-2.095996 0.02625,-0.567941 0.775289,-0.89327 0.90227,-1.447456 0.02163,-0.0944 0.04666,-0.231022 -0.03101,-0.288872 -0.0954,-0.07106 -0.237277,0.100391 -0.350883,0.06511 -0.450054,-0.139755 -0.999483,-0.528685 -0.999422,-0.999939 6.1e-5,-0.471132 0.53524,-0.918794 0.999422,-0.999423 0.273301,-0.04747 0.495806,0.460899 0.752409,0.355534 0.252249,-0.103577 0.05109,-0.621181 0.280603,-0.768428 0.06909,-0.04432 0.163562,0.0251 0.245463,0.01964 0.203279,-0.01355 0.485574,0.04112 0.59738,-0.129191 0.06506,-0.09909 -0.103694,-0.23539 -0.06925,-0.348816 0.136941,-0.450918 0.55185,-0.853489 0.999939,-0.999422 0.02222,-0.0072 0.05054,0.02486 0.06925,0.01085 0.04046,-0.0303 0.03466,-0.102111 0.01964,-0.150379 -0.214375,-0.688724 -0.797513,-1.918341 -1.44849,-1.607654 -0.03872,0.01848 0.0334,0.08632 0.02015,0.127124 -0.145536,0.448218 -0.528168,0.999939 -0.999422,0.999939 -0.471254,0 -0.937773,-0.532735 -0.999422,-0.999939 -0.04265,-0.323239 0.612793,-0.546139 0.488342,-0.847493 -0.104775,-0.253709 -0.521152,-0.237229 -0.794783,-0.215491 z"
       sodipodi:nodetypes="ssssssssssssssssssssssssssssssssssssssssssssssssss" />
    <path
       id="circle76"
       style="fill:#ffd42a;fill-opacity:1;stroke-width:22.4544;stroke-linecap:round;paint-order:markers stroke fill"
       d="m 18.549255,48.317981 c -0.01234,-0.0042 -0.03125,-0.0055 -0.03876,0.0052 -0.04442,0.0631 0.07042,0.152333 0.04858,0.226342 -0.08247,0.279435 -0.334848,0.549622 -0.61805,0.618051 -0.120834,0.0292 -0.249807,-0.180418 -0.355017,-0.114205 -0.07519,0.04732 -0.0329,0.175282 -0.03617,0.264066 -4.07e-4,0.01104 0.0098,0.0252 0.0021,0.03307 -0.01838,0.01868 -0.05365,-0.01181 -0.07855,-0.0036 -0.396276,0.130474 -1.141262,0.407989 -0.971517,0.789099 0.005,0.01115 0.02457,-0.0095 0.03617,-0.0057 0.276941,0.0901 0.564095,0.331346 0.61805,0.617534 0.03052,0.161904 -0.268784,0.303702 -0.198438,0.452685 0.07627,0.161539 0.339318,0.173859 0.515731,0.145728 0.362336,-0.05778 0.854604,-0.251783 0.913639,-0.613916 0.04008,-0.245854 -0.471898,-0.343634 -0.455786,-0.592212 0.01885,-0.290741 0.326726,-0.614029 0.61805,-0.61805 0.282419,-0.0039 0.337562,0.632837 0.615467,0.582393 0.287205,-0.05213 0.432119,-0.499135 0.383956,-0.787032 -0.07774,-0.464675 -0.553168,-0.848352 -0.999423,-0.999422 z m -1.637109,4.209562 c -0.446181,0.151286 -0.857404,0.550205 -0.999422,0.999422 -0.03047,0.09637 -0.03677,0.250721 0.05219,0.29869 0.138464,0.07466 0.278519,-0.217034 0.433048,-0.187585 0.285962,0.0545 0.617473,0.326425 0.617534,0.617533 6.1e-5,0.29123 -0.330702,0.567628 -0.617534,0.61805 -0.167276,0.02941 -0.295824,-0.253521 -0.46147,-0.216007 -0.153265,0.03471 -0.295766,0.207211 -0.299207,0.364319 -0.0054,0.245886 0.460267,0.344815 0.442867,0.590144 -0.02061,0.290622 -0.328889,0.582391 -0.61805,0.618051 -0.205499,0.02534 -0.345055,-0.406711 -0.532784,-0.319361 -0.08637,0.04019 -0.06785,0.189554 -0.04547,0.282153 0.09262,0.383241 0.521203,0.601885 0.700732,0.952914 0.01203,0.02352 0.0018,0.0616 0.02429,0.07545 0.05197,0.03199 0.122837,-0.04732 0.180868,-0.02842 0.276806,0.09013 0.549115,0.33458 0.617533,0.617534 0.02951,0.122047 -0.173139,0.247216 -0.115238,0.358634 0.140491,0.270344 0.576562,0.342421 0.872815,0.271302 0.729517,-0.175128 1.934021,-0.893446 1.611788,-1.570964 -0.01929,-0.04056 -0.09143,0.03027 -0.133842,0.0155 -0.275152,-0.0958 -0.582678,-0.328854 -0.61805,-0.61805 -0.02522,-0.20617 0.357389,-0.329249 0.321427,-0.533818 -0.03009,-0.171163 -0.359901,-0.160349 -0.405143,-0.328145 -0.06145,-0.227927 0.262097,-0.426139 0.251664,-0.661975 -0.01284,-0.290158 -0.347594,-0.495342 -0.380339,-0.783932 -0.01666,-0.146812 0.09217,-0.284429 0.09922,-0.432015 0.0022,-0.04633 0.02134,-0.113542 -0.01809,-0.137976 -0.111776,-0.06927 -0.244978,0.15776 -0.373103,0.128158 -0.283755,-0.06556 -0.549605,-0.334461 -0.618051,-0.617534 -0.02947,-0.121888 0.182268,-0.252134 0.115239,-0.358117 -0.01895,-0.02996 -0.07185,-0.02534 -0.10542,-0.01395 z"
       sodipodi:nodetypes="ssssssssssssssssssssssssssssssssssssssssssssssssss" />
  </g>
  <g
     id="g142"
     transform="matrix(0,-1.4773847,1.4773847,0,-107.25349,109.68287)">
    <path
       id="circle93"
       style="fill:#800000;fill-opacity:1;stroke-width:22.4544;stroke-linecap:round;paint-order:markers stroke fill"
       d="m 20.133655,72.631226 c -0.715612,0.157041 -0.899835,1.315373 -1.609721,1.496549 -0.229404,0.05855 -0.48415,-0.295036 -0.68833,-0.175183 -0.384296,0.22558 -0.320353,0.846909 -0.343648,1.291911 -0.01379,0.263439 0.306885,0.593231 0.122473,0.781864 -0.160118,0.163783 -0.452053,-0.09233 -0.681096,-0.09095 -0.250666,0.0015 -0.502549,0.175373 -0.74414,0.10852 -1.063073,-0.294173 -1.50208,-1.79158 -2.563151,-2.092895 -0.193552,-0.05496 -0.470253,-0.07604 -0.598413,0.07906 -0.01506,0.01822 0.01254,0.0487 0.0041,0.0708 -0.271138,0.712517 -0.892447,1.381301 -1.617473,1.616956 -0.07347,0.02388 -0.165565,-0.08038 -0.228926,-0.03617 -0.246863,0.172216 -0.263151,0.59772 -0.1757,0.885734 0.358339,1.18017 1.445418,2.229003 2.616378,2.616378 0.239861,0.07935 0.529333,-0.233928 0.749825,-0.110587 0.308392,0.172512 0.537861,0.642555 0.417029,0.974617 -0.233233,0.640957 -1.570934,0.29128 -1.825729,0.923975 -0.130143,0.323164 0.422721,0.646852 0.345199,0.986503 -0.169666,0.743367 -0.892257,1.382007 -1.617473,1.617472 -0.0564,0.01831 -0.122112,-0.0533 -0.175699,-0.02791 -0.68481,0.324552 -1.6489586,1.397139 -1.145667,1.963704 0.273797,0.308219 0.729266,-0.56989 1.134298,-0.492993 0.748983,0.142198 1.617411,0.854594 1.617472,1.616956 6.1e-5,0.762484 -0.862157,1.513165 -1.617472,1.617472 -0.513304,0.07089 -0.878591,-0.961646 -1.35599,-0.76016 -0.3958856,0.167083 -0.4081201,0.822355 -0.3327961,1.245402 0.1739063,0.97672 0.7942151,2.806237 1.7135901,2.433443 0.102142,-0.04142 -0.08575,-0.221776 -0.05168,-0.326595 0.235696,-0.725012 0.85511,-1.617017 1.617472,-1.616956 0.76224,6.1e-5 1.616895,0.854716 1.616956,1.616956 6.1e-5,0.762362 -0.891869,1.382006 -1.616956,1.617472 -0.071,0.02306 -0.191825,-0.103778 -0.221175,-0.03514 -0.668022,1.562264 2.360847,3.2016 4.056083,3.08715 1.99108,-0.134423 3.523896,-2.36808 4.233334,-4.233333 0.05656,-0.148699 -0.141076,-0.364643 -0.02791,-0.476457 0.06953,-0.0687 0.200926,0.05487 0.292489,0.02067 1.155426,-0.431507 2.220069,-1.448411 2.616378,-2.616378 0.04952,-0.145941 0.06075,-0.363194 -0.06046,-0.45837 -0.08395,-0.06592 -0.217649,0.07007 -0.318326,0.03462 -0.719208,-0.253221 -1.381659,-0.89237 -1.617473,-1.617472 -0.04989,-0.1534 0.171487,-0.348405 0.07545,-0.478007 -0.139381,-0.188091 -0.46355,-0.128371 -0.695565,-0.09715 -0.677775,0.0912 -1.326273,1.205675 -1.884639,0.810804 -0.01269,-0.009 0.0056,-0.03118 0.0031,-0.04651 -0.109456,-0.661259 -0.834049,-1.18874 -0.773079,-1.856218 0.02991,-0.327444 0.545537,-0.498103 0.537951,-0.826823 -0.01447,-0.627214 -1.149022,-0.903275 -1.098124,-1.528588 0.06184,-0.759728 0.855145,-1.591387 1.616956,-1.616956 0.698987,-0.02346 0.885397,1.464516 1.579748,1.380794 0.983404,-0.118574 1.663164,-1.441883 1.708423,-2.431376 0.03967,-0.867242 -1.255967,-1.391578 -1.296562,-2.258777 -0.03382,-0.722497 0.791675,-1.259379 0.899687,-1.974556 0.0028,-0.01872 1.01e-4,-0.03888 -0.0072,-0.05633 -0.2559,-0.608713 -1.066081,-0.914615 -1.227315,-1.554943 -0.04352,-0.17285 0.184586,-0.373656 0.09302,-0.526583 -0.261225,-0.436272 -0.952843,-0.584419 -1.449524,-0.475423 z"
       sodipodi:nodetypes="ssssssssssssssssssssssssssssssssssssssssssssssssssssssss" />
    <path
       id="circle113"
       style="fill:#d45500;fill-opacity:1;stroke-width:22.4544;stroke-linecap:round;paint-order:markers stroke fill"
       d="m 16.21038,80.537203 c -0.58806,-0.0024 -1.56511,0.269806 -1.412317,0.837675 0.119974,0.445897 0.77289,0.502015 0.775147,0.963765 0.0027,0.552121 -0.447299,1.001931 -0.999423,0.999939 -0.343792,-0.0012 -0.498038,-0.479887 -0.841809,-0.47594 -0.518495,0.006 -0.681132,0.784235 -0.682129,1.302763 -0.0011,0.560734 0.282621,1.104413 0.775664,1.371493 0.03299,0.01787 -0.01732,-0.07358 -0.01757,-0.111105 -0.0037,-0.552115 0.447294,-0.999796 0.999422,-0.999939 0.55233,-1.43e-4 1.000082,0.447609 0.999939,0.999939 -1.43e-4,0.552128 -0.447816,1.001733 -0.999939,0.999423 -0.234473,-9.81e-4 -0.413892,-0.309614 -0.638204,-0.241329 -0.301003,0.09163 -0.276246,0.566961 -0.277502,0.8816 -3.73e-4,0.09352 -0.0511,0.317695 0.03359,0.278019 0.237102,-0.111078 0.43322,-0.296748 0.695048,-0.298173 0.551918,-0.003 0.999279,0.447496 0.999422,0.999422 1.43e-4,0.552128 -0.447303,1.003041 -0.999422,0.999939 -0.06994,-3.93e-4 -0.136837,-0.03579 -0.206706,-0.03256 -0.02147,9.93e-4 -0.0072,0.04258 -0.0072,0.06408 -0.0011,0.619447 0.503174,0.989268 0.913122,1.453658 0.183254,0.207591 -0.136485,0.53752 -0.134875,0.81442 2.83e-4,0.04865 -0.03392,0.14015 0.01447,0.145211 0.542177,0.05671 0.985014,0.453777 0.982369,0.998905 -0.0012,0.246094 -0.370211,0.439487 -0.266133,0.662492 0.301371,0.645742 1.173067,0.809167 1.885673,0.80977 1.444965,0.0012 2.616824,-1.171413 2.616377,-2.616378 -2e-6,-0.0059 0.0043,-0.01763 -0.0016,-0.01757 -0.04547,5.05e-4 -0.09043,0.0098 -0.135909,0.0098 -0.55233,3.39e-4 -1.000082,-0.447609 -0.999939,-0.999939 1.43e-4,-0.552128 0.447812,-1.000093 0.999939,-0.999422 0.436479,5.3e-4 0.525015,0.610658 0.95188,0.701766 0.499643,0.106641 0.662852,-0.778952 0.665076,-1.289844 0.0018,-0.41917 -0.05064,-1.022494 -0.457854,-1.121896 -0.252639,-0.06167 -0.431376,0.293301 -0.69143,0.294556 -0.437368,0.0021 -0.678973,-0.362978 -0.952397,-0.70435 -0.10804,-0.134888 -0.340817,0.34803 -0.463021,0.225826 l -5.16e-4,-5.16e-4 C 19.239466,87.350554 19.099776,87.293961 19.05,87.17349 c -0.04398,-0.106442 0.0412,-0.226929 0.04082,-0.342098 -0.0013,-0.406244 -0.09028,-0.880703 -0.436665,-1.092956 -0.112954,-0.06921 -0.253034,0.07898 -0.385507,0.07906 -0.552128,3.66e-4 -0.999599,-0.447811 -0.999422,-0.999939 6.8e-5,-0.211776 0.237685,-0.382269 0.192236,-0.589111 -0.07178,-0.32667 -1.107455,-0.321519 -0.834057,-0.514181 0.598142,-0.421508 1.202523,-0.828374 1.200443,-1.560111 -9.22e-4,-0.324385 -0.06027,-0.678335 -0.291455,-0.905888 -0.04897,-0.0482 -0.134373,0.03182 -0.203088,0.03204 -0.443213,0.0014 -0.78733,-0.311331 -0.955497,-0.721403 -0.02137,-0.05211 -0.111116,-0.02147 -0.167432,-0.0217 z"
       sodipodi:nodetypes="sssssssssssssssssssssssssssssssssssssssssssssssss" />
    <path
       id="circle131"
       style="fill:#ffd42a;fill-opacity:1;stroke-width:22.4544;stroke-linecap:round;paint-order:markers stroke fill"
       d="m 16.786056,85.596842 c -0.183826,0.05576 0.242332,0.297796 0.242362,0.489893 5.3e-5,0.340993 -0.276541,0.618324 -0.617533,0.617533 -0.264496,-6.14e-4 -0.418032,-0.214967 -0.582394,-0.422196 -0.06633,-0.08363 -0.0562,0.206417 -0.05633,0.313159 -5.84e-4,0.477711 0.374491,0.780787 0.809253,0.978752 0.110789,0.05045 -0.179036,0.172596 -0.221175,0.286804 -0.0059,0.01598 0.03361,-0.0067 0.05064,-0.0067 0.341192,-0.0013 0.617675,0.276856 0.617533,0.61805 -1.42e-4,0.340993 -0.276541,0.618439 -0.617533,0.617534 -0.202124,-5.36e-4 -0.320499,-0.185904 -0.504879,-0.268718 -0.118742,-0.05333 -0.371328,0.150549 -0.291972,0.253731 0.151977,0.197608 0.384314,0.317086 0.385506,0.566374 0.0013,0.268238 -0.303705,0.35058 -0.428397,0.588078 -0.100033,0.190529 0.350724,0.229864 0.491959,0.392224 0.08292,0.09532 -0.04791,0.248314 -0.04806,0.374654 -0.0011,0.89318 0.724291,1.617099 1.617472,1.616956 0.89298,-1.42e-4 1.618011,-0.723977 1.616956,-1.616956 -3.33e-4,-0.281952 -0.04084,-0.583251 -0.218075,-0.802535 -0.03002,-0.03715 -0.09383,0.0185 -0.141593,0.0186 -0.341194,7.4e-4 -0.617908,-0.276339 -0.61805,-0.617534 -1.43e-4,-0.341396 0.276654,-0.618234 0.61805,-0.61805 0.144038,7.8e-5 0.252117,0.165725 0.394291,0.142627 0.126369,-0.02053 0.07708,-0.244562 0.07752,-0.372587 0.0012,-0.342948 -0.263778,-0.568014 -0.466122,-0.84491 -0.08517,-0.116557 0.09361,-0.27371 0.09199,-0.418062 -3e-4,-0.02672 0.0063,-0.05787 -0.0093,-0.07958 -0.0081,-0.01136 -0.02788,0.0021 -0.04186,0.0021 -0.341195,6.5e-5 -0.619099,-0.276859 -0.617534,-0.61805 3.53e-4,-0.07691 0.09321,-0.161864 0.04754,-0.223759 -0.07725,-0.104704 -0.248159,-0.07942 -0.378272,-0.0801 -0.07415,-3.85e-4 -0.203209,0.09907 -0.220141,0.02687 -0.11727,-0.500011 -0.490387,-1.063237 -0.981852,-0.914157 z"
       sodipodi:nodetypes="sssssssssssssssssssssssssssssssss" />
  </g>
  <g
     id="g40"
     transform="matrix(0,2.1381299,2.1381299,0,-20.292844,-33.185328)">
    <path
       id="path1-1"
       style="fill:#800000;fill-opacity:1;stroke-width:22.4544;stroke-linecap:round;paint-order:markers stroke fill"
       d="m 22.724711,9.525 c -0.120425,-0.042132 -0.308193,-0.062334 -0.380338,0.042891 -0.152057,0.2217794 0.274926,0.520763 0.204638,0.780315 -0.199305,0.735975 -0.881497,1.418167 -1.617472,1.617472 -0.259552,0.07029 -0.558534,-0.356696 -0.780314,-0.204639 -0.105226,0.07214 -0.06797,0.255244 -0.04289,0.380339 0.166426,0.830233 1.434278,1.396396 1.235584,2.219503 -0.142879,0.59189 -1.732982,0.444958 -1.518771,1.014925 0.02714,0.0722 0.156419,-0.0548 0.229444,-0.02997 0.721665,0.245376 1.616894,0.854716 1.616955,1.616956 6.1e-5,0.762362 -0.85503,1.591681 -1.616955,1.617472 -0.701928,0.02376 -0.884904,-1.367206 -1.586983,-1.385962 -0.405742,-0.01084 -0.881294,0.352401 -0.958598,0.750859 -0.102516,0.528415 0.826286,0.860972 0.806669,1.398881 -0.02204,0.604447 -1.147156,0.9107 -1.018543,1.501717 0.179222,0.823587 1.466315,0.835708 2.160592,1.313615 1.420998,0.978146 2.3652,3.150534 4.09019,3.170866 1.673732,0.01973 2.83942,-1.815961 4.040063,-2.982247 0.769792,-0.747764 1.687156,-1.503086 1.986442,-2.533696 0.02172,-0.07481 0.03791,-0.184296 -0.02325,-0.232544 -0.110282,-0.087 -0.284439,0.101714 -0.417546,0.05684 -0.722423,-0.243519 -1.525601,-0.860604 -1.616955,-1.617473 -0.06645,-0.550562 0.952824,-0.875503 0.862479,-1.422652 -0.09146,-0.553934 -1.089285,-0.558747 -1.289843,-1.083138 -0.08758,-0.228988 0.09871,-0.483011 0.103869,-0.728121 2.18e-4,-0.01038 3.31e-4,-0.0212 -0.0031,-0.03101 -0.190822,-0.545281 -0.8206,-0.890601 -0.940511,-1.455725 -0.0321,-0.151286 0.139134,-0.319128 0.07183,-0.45837 -0.165022,-0.341409 -0.810625,-0.226146 -0.990121,-0.560172 -0.02223,-0.04137 0.02627,-0.09657 0.0098,-0.14056 C 24.909112,10.986128 23.888891,9.9323003 22.724711,9.525 Z"
       sodipodi:nodetypes="sssssssssssssssssssssssssssssss" />
    <path
       id="circle1-6"
       style="fill:#d45500;fill-opacity:1;stroke-width:22.4544;stroke-linecap:round;paint-order:markers stroke fill"
       d="m 24.833626,14.837854 c -0.159479,-0.04891 -0.418106,-0.06043 -0.492476,0.08888 -0.133639,0.268305 0.452989,0.50655 0.40566,0.802535 -0.07441,0.465342 -0.529064,0.970901 -0.999422,0.999939 -0.405099,0.02501 -0.569109,-0.857503 -0.960148,-0.748791 -0.36437,0.101298 -0.410718,0.681206 -0.406177,1.059367 0.0049,0.406351 0.446348,0.721563 0.463537,1.12758 0.0041,0.09672 -0.03339,0.196596 -0.08733,0.276985 -0.325072,0.484466 -0.838307,0.830861 -1.345137,1.119829 -0.05576,0.03179 -0.153784,0.0067 -0.181385,0.06459 -0.09314,0.195383 0.263907,0.401283 0.216008,0.612366 -0.104312,0.459689 -0.551584,0.85443 -0.999939,0.999939 -0.0876,0.02843 -0.222103,-0.120258 -0.272852,-0.04341 -0.29568,0.447739 0.512921,0.950825 0.856796,1.362707 0.752484,0.9013 1.429802,2.273229 2.599324,2.377116 0.923711,0.08205 2.245053,-0.565029 2.351795,-1.486214 0.05356,-0.462211 -0.980308,-0.530505 -0.978235,-0.995805 0.0021,-0.471127 0.530144,-0.95767 0.999422,-0.999422 0.375202,-0.03338 0.560049,0.727917 0.927592,0.645438 0.316523,-0.07103 0.492919,-0.519585 0.484725,-0.843876 -0.0089,-0.353083 -0.525585,-0.540986 -0.573609,-0.890902 -0.02566,-0.186985 0.222146,-0.360576 0.166915,-0.541052 -0.04969,-0.162371 -0.35468,-0.154882 -0.396875,-0.31936 -0.101207,-0.394505 0.430204,-0.723909 0.465605,-1.129647 0.01837,-0.210513 0.05837,-0.537182 -0.136426,-0.619084 -0.324549,-0.136457 -0.54628,0.599152 -0.896069,0.559139 -0.468201,-0.05356 -0.999483,-0.528685 -0.999422,-0.999939 6.1e-5,-0.471132 0.546079,-0.871182 0.999422,-0.999422 0.132226,-0.0374 0.33466,0.215939 0.401009,0.0956 0.362761,-0.657951 -0.893998,-1.354801 -1.612305,-1.575098 -4e-6,-1e-6 1e-6,1.3e-5 -3e-6,1.2e-5 z"
       sodipodi:nodetypes="sssssssssssssssssssssssssssssss" />
    <path
       id="circle18"
       style="fill:#ffd42a;fill-opacity:1;stroke-width:22.4544;stroke-linecap:round;paint-order:markers stroke fill"
       d="m 24.297225,17.848523 c -0.07282,0.03634 0.07206,0.161344 0.04858,0.239262 -0.08405,0.278838 -0.330744,0.56989 -0.61805,0.617533 -0.176242,0.02923 -0.320699,-0.314801 -0.481108,-0.236161 -0.111323,0.05458 -0.08814,0.241043 -0.07493,0.364319 0.02858,0.266855 0.371788,0.472018 0.325562,0.736389 -0.0238,0.136096 -0.285702,0.161564 -0.286288,0.299723 -0.0012,0.279307 0.577994,0.331541 0.573609,0.610816 -0.0046,0.291316 -0.328126,0.589248 -0.61805,0.61805 -0.223014,0.02216 -0.345942,-0.440061 -0.559656,-0.372587 -0.112132,0.0354 -0.03027,0.263505 -0.128158,0.328662 -0.0059,0.0039 -0.01419,-0.0015 -0.02119,-5.17e-4 -0.183495,0.02484 -0.445827,-0.0033 -0.531751,0.160714 -0.05829,0.111274 0.142742,0.235949 0.115756,0.358634 -0.05997,0.272635 -0.548806,0.336969 -0.567924,0.615466 -0.02077,0.302577 0.324781,0.514505 0.519865,0.746725 0.488261,0.581207 0.857361,1.605497 1.616438,1.604036 0.762239,-0.0015 1.358208,-0.899976 1.616956,-1.616955 0.03347,-0.09275 0.05881,-0.246657 -0.02739,-0.294556 -0.001,-5.61e-4 -0.002,0.0011 -0.0031,0.0015 -0.004,0.0018 -0.0081,0.0035 -0.0124,0.0047 -0.06071,0.01601 -0.123252,0.0295 -0.186036,0.02946 -0.06332,-4.5e-5 -0.12637,-0.01378 -0.187585,-0.02997 -0.0028,-7.53e-4 -0.0056,-0.0019 -0.0083,-0.0031 -0.05465,-0.02404 -0.108995,-0.04958 -0.15968,-0.08113 -0.0051,-0.0032 -0.0099,-0.0069 -0.01447,-0.01085 -0.04362,-0.03783 -0.08488,-0.07865 -0.122473,-0.122473 -0.0042,-0.0049 -0.008,-0.01004 -0.01137,-0.0155 -0.03128,-0.05085 -0.05686,-0.105133 -0.08113,-0.15968 -9.75e-4,-0.0022 -0.002,-0.0044 -0.0026,-0.0067 -0.01648,-0.06132 -0.02994,-0.12461 -0.02997,-0.188102 -3.1e-5,-0.06278 0.01344,-0.125328 0.02946,-0.186036 0.0011,-0.0043 0.0029,-0.0084 0.0046,-0.0124 0.02355,-0.05343 0.04905,-0.106286 0.07958,-0.156063 0.0037,-0.006 0.0078,-0.01171 0.0124,-0.01705 0.03687,-0.04315 0.07743,-0.08333 0.120407,-0.120406 0.005,-0.0043 0.01037,-0.0084 0.01602,-0.01189 0.04978,-0.03082 0.10325,-0.05542 0.15658,-0.07958 0.0042,-0.0019 0.0084,-0.0039 0.01292,-0.0052 0.06036,-0.01664 0.144863,0.01816 0.185518,-0.02946 1.12e-4,-1.31e-4 -1.25e-4,-3.98e-4 0,-5.16e-4 0.01567,-0.01482 0.04315,0.0014 0.0646,0.0036 0.02045,0.0021 0.04067,0.0061 0.06098,0.0093 0.001,1.65e-4 0.0021,3.04e-4 0.0031,5.17e-4 0.0021,4.34e-4 0.0041,10e-4 0.0062,0.0016 0.01416,0.0037 0.02822,0.0077 0.04237,0.01137 6.87e-4,1.78e-4 0.0014,3.24e-4 0.0021,5.16e-4 0.0078,0.0022 0.01556,0.0046 0.02325,0.0072 0.0019,6.44e-4 0.0038,0.0014 0.0057,0.0021 0.01194,0.0045 0.02392,0.0089 0.03566,0.01395 0.0049,0.0021 0.0097,0.0044 0.01447,0.0067 0.0059,0.0029 0.01153,0.01202 0.01757,0.0093 0.08829,-0.03969 -0.01142,-0.227876 0.06873,-0.282153 0.07693,-0.0521 0.183048,0.03811 0.275952,0.03927 0.03416,4.3e-4 0.08423,0.01741 0.101803,-0.01188 0.07443,-0.124103 -0.188227,-0.262454 -0.158647,-0.40411 0.05953,-0.285081 0.332299,-0.561311 0.61805,-0.617533 0.149695,-0.02945 0.290659,0.254024 0.422197,0.176733 0.04125,-0.02424 0.03183,-0.09747 0.01602,-0.142627 -0.155683,-0.444667 -0.553424,-0.847597 -0.999423,-0.999422 -0.07975,-0.02715 -0.201105,-0.03559 -0.25063,0.03256 -0.04409,0.06067 0.06354,0.149534 0.04134,0.221175 -0.08621,0.278178 -0.32682,0.617594 -0.61805,0.617533 -0.291108,-6.1e-5 -0.617473,-0.326425 -0.617534,-0.617533 -6.1e-5,-0.29123 0.334521,-0.549359 0.617534,-0.61805 0.121971,-0.0296 0.252947,0.182425 0.358634,0.114722 0.04778,-0.03061 0.03754,-0.1148 0.02067,-0.168982 -0.130443,-0.418954 -0.480709,-1.180874 -0.873332,-0.984953 z"
       sodipodi:nodetypes="ssssssssssssssssssssssssssssssssssssssssssssssssssssssssssssssssssss" />
  </g>
</svg>
